<svg version="1.1" id="Layer_1" xmlns="http://www.w3.org/2000/svg" xmlns:xlink="http://www.w3.org/1999/xlink" x="0px" y="0px"
	 viewBox="0 0 1600 723" width="1600" height="723" style="enable-background:new 0 0 1600 723;" xml:space="preserve">
<style type="text/css">
	.st0{fill:url(#SVGID_1_);}
	.st1{opacity:0.4;}
	.st2{opacity:0.55;clip-path:url(#SVGID_3_);}
	.st3{opacity:0.1;fill:none;stroke:#FFFFFF;stroke-width:2;stroke-miterlimit:10;enable-background:new    ;}
	.st4{opacity:0.4;clip-path:url(#SVGID_3_);}
	.st5{fill:#FBFBFB;}
	.st6{fill:#E7E7E7;}
	.st7{fill:#CECECE;}
	.st8{opacity:9.000000e-02;clip-path:url(#SVGID_3_);}
	.st9{opacity:0.33;clip-path:url(#SVGID_3_);}
	.st10{opacity:0.15;clip-path:url(#SVGID_3_);}
	.st11{opacity:0.19;clip-path:url(#SVGID_3_);}
	.st12{opacity:0.3;clip-path:url(#SVGID_3_);}
	.st13{opacity:0.6;clip-path:url(#SVGID_3_);}
	.st14{opacity:0.57;clip-path:url(#SVGID_3_);}
	.st15{opacity:0.17;clip-path:url(#SVGID_3_);}
	.st16{opacity:0.42;clip-path:url(#SVGID_3_);}
	.st17{opacity:0.31;clip-path:url(#SVGID_3_);}
</style>
<linearGradient id="SVGID_1_" gradientUnits="userSpaceOnUse" x1="800" y1="723" x2="800" y2="0">
	<stop  offset="4.877805e-02" style="stop-color:#118BA5"/>
	<stop  offset="0.269" style="stop-color:#13708D"/>
	<stop  offset="0.6372" style="stop-color:#164969"/>
	<stop  offset="0.8291" style="stop-color:#173A5B"/>
</linearGradient>
<rect y="0" class="st0" width="1600" height="723"/>
<g class="st1">
	<defs>
		<rect id="SVGID_2_" x="584.1" class="st1" width="1015.9" height="723"/>
	</defs>
	<clipPath id="SVGID_3_">
		<use xlink:href="#SVGID_2_"  style="overflow:visible;"/>
	</clipPath>
	<g id="Layer_1_1_" class="st2">
		<g>
			<polygon class="st3" points="1574.6,738.1 1080.5,1023.3 1080.5,457.2 1574.6,172 			"/>
			<polygon class="st3" points="1504.6,697 1010.4,982.3 1010.4,416.2 1504.6,130.9 			"/>
			<polygon class="st3" points="1434.5,655.9 940.4,941.2 940.4,375.1 1434.5,89.8 			"/>
			<polygon class="st3" points="1364.5,614.9 870.4,900.2 870.4,334.1 1364.5,48.8 			"/>
			<polygon class="st3" points="1294.5,573.8 800.3,859.1 800.3,293 1294.5,7.7 			"/>
			<polygon class="st3" points="1224.4,532.8 730.3,818.1 730.3,251.9 1224.4,-33.3 			"/>
			<polygon class="st3" points="1574.6,251.9 1080.5,-33.3 1080.5,533.7 1574.6,818.1 			"/>
			<polygon class="st3" points="1504.6,293 1010.4,7.7 1010.4,573.8 1504.6,859.1 			"/>
			<polygon class="st3" points="1434.5,334.1 940.4,48.8 940.4,618.4 1434.5,900.2 			"/>
			<polygon class="st3" points="1364.5,375.1 870.4,89.8 870.4,655.9 1364.5,941.2 			"/>
			<polygon class="st3" points="1294.5,416.2 800.3,130.9 800.3,697 1294.5,982.3 			"/>
			<polygon class="st3" points="1224.4,457.2 730.3,172 730.3,738.1 1224.4,1023.3 			"/>
			<polygon class="st3" points="1151.9,982.1 1646,696.8 1152.2,415.6 661.6,699.1 			"/>
			<polygon class="st3" points="1151.3,901 1645.4,615.7 1151.7,334.4 661.1,617.9 			"/>
			<polygon class="st3" points="1150.8,819.7 1644.9,534.5 1152,252.3 660.6,536.7 			"/>
			<polygon class="st3" points="1150.2,738.6 1644.4,453.3 1152.4,171.2 660,455.5 			"/>
			<polygon class="st3" points="1152.4,655.6 1643.8,372.1 1153.6,89 659.5,374.3 			"/>
			<polygon class="st3" points="1152.7,575.3 1643.3,291 1153,7.9 658.9,293.2 			"/>
		</g>
	</g>
	<g class="st4">
		<polygon class="st5" points="944.9,194.9 1033.4,243.2 1121.8,194.9 1033.4,144.7 		"/>
		<polygon class="st6" points="944.9,295.2 1033.4,346.2 1033.4,242.3 944.9,194 		"/>
		<polygon class="st7" points="1121.8,296.1 1121.8,194.9 1033.4,242.3 1033.4,346.2 		"/>
	</g>
	<g class="st8">
		<polygon class="st5" points="825.4,489.9 890.9,525.7 956.3,489.9 890.9,452.8 		"/>
		<polygon class="st6" points="825.4,564.1 890.9,601.9 890.9,525 825.4,489.3 		"/>
		<polygon class="st7" points="956.3,564.8 956.3,489.9 890.9,525 890.9,601.9 		"/>
	</g>
	<g class="st8">
		<polygon class="st5" points="858.2,126.3 923.6,162.1 989,126.3 923.6,89.2 		"/>
		<polygon class="st6" points="858.2,200.6 923.6,238.3 923.6,161.4 858.2,125.7 		"/>
		<polygon class="st7" points="989,201.2 989,126.3 923.6,161.4 923.6,238.3 		"/>
	</g>
	<g class="st9">
		<polygon class="st5" points="902.8,289.5 935.5,307.4 968.3,289.5 935.5,271 		"/>
		<polygon class="st6" points="902.8,326.6 935.5,345.5 935.5,307.1 902.8,289.2 		"/>
		<polygon class="st7" points="968.3,327 968.3,289.5 935.5,307.1 935.5,345.5 		"/>
	</g>
	<g class="st9">
		<polygon class="st5" points="768.3,434.1 801,452 833.7,434.1 801,415.6 		"/>
		<polygon class="st6" points="768.3,471.2 801,490.1 801,451.7 768.3,433.8 		"/>
		<polygon class="st7" points="833.7,471.6 833.7,434.1 801,451.7 801,490.1 		"/>
	</g>
	<g class="st10">
		<polygon class="st5" points="788.6,476.1 813.2,489.5 837.7,476.1 813.2,462.2 		"/>
		<polygon class="st6" points="788.6,503.9 813.2,518.1 813.2,489.2 788.6,475.8 		"/>
		<polygon class="st7" points="837.7,504.2 837.7,476.1 813.2,489.2 813.2,518.1 		"/>
	</g>
	<g class="st10">
		<polygon class="st5" points="813.2,436.1 837.7,449.5 862.2,436.1 837.7,422.2 		"/>
		<polygon class="st6" points="813.2,464 837.7,478.1 837.7,449.3 813.2,435.9 		"/>
		<polygon class="st7" points="862.2,464.2 862.2,436.1 837.7,449.3 837.7,478.1 		"/>
	</g>
	<g class="st10">
		<polygon class="st5" points="1525.3,148.1 1549.9,161.5 1574.4,148.1 1549.9,134.1 		"/>
		<polygon class="st6" points="1525.3,175.9 1549.9,190.1 1549.9,161.2 1525.3,147.8 		"/>
		<polygon class="st7" points="1574.4,176.1 1574.4,148.1 1549.9,161.2 1549.9,190.1 		"/>
	</g>
	<g class="st11">
		<polygon class="st5" points="1291.3,415.4 1356.8,451.2 1422.2,415.4 1356.8,378.3 		"/>
		<polygon class="st6" points="1291.3,489.6 1356.8,527.4 1356.8,450.5 1291.3,414.7 		"/>
		<polygon class="st7" points="1422.2,490.3 1422.2,415.4 1356.8,450.5 1356.8,527.4 		"/>
	</g>
	<g class="st10">
		<polygon class="st5" points="1084.2,237.9 1149.7,273.7 1215.1,237.9 1149.7,200.8 		"/>
		<polygon class="st6" points="1084.2,312.1 1149.7,349.9 1149.7,273 1084.2,237.2 		"/>
		<polygon class="st7" points="1215.1,312.8 1215.1,237.9 1149.7,273 1149.7,349.9 		"/>
	</g>
	<g class="st12">
		<polygon class="st5" points="1033.4,466.7 1136.4,523 1239.5,466.7 1136.4,408.2 		"/>
		<polygon class="st6" points="1033.4,583.5 1136.4,643 1136.4,521.9 1033.4,465.6 		"/>
		<polygon class="st7" points="1239.5,584.6 1239.5,466.7 1136.4,521.9 1136.4,643 		"/>
	</g>
	<g class="st13">
		<polygon class="st5" points="1096.6,577.2 1212.2,640.4 1327.9,577.2 1212.2,511.7 		"/>
		<polygon class="st6" points="1096.6,708.4 1212.2,775.2 1212.2,639.2 1096.6,576 		"/>
		<polygon class="st7" points="1327.9,709.6 1327.9,577.2 1212.2,639.2 1212.2,775.2 		"/>
	</g>
	<g class="st14">
		<polygon class="st5" points="1366.3,163.8 1432.4,199.9 1498.5,163.8 1432.4,126.3 		"/>
		<polygon class="st6" points="1366.3,238.8 1432.4,276.9 1432.4,199.2 1366.3,163.1 		"/>
		<polygon class="st7" points="1498.5,239.4 1498.5,163.8 1432.4,199.2 1432.4,276.9 		"/>
	</g>
	<g class="st13">
		<polygon class="st5" points="1239.5,503.2 1274.1,522.1 1308.6,503.2 1274.1,483.6 		"/>
		<polygon class="st6" points="1239.5,542.4 1274.1,562.4 1274.1,521.7 1239.5,502.9 		"/>
		<polygon class="st7" points="1308.6,542.8 1308.6,503.2 1274.1,521.7 1274.1,562.4 		"/>
	</g>
	<g class="st15">
		<polygon class="st5" points="1387,636.8 1450,671.2 1512.9,636.8 1450,601.1 		"/>
		<polygon class="st6" points="1387,708.2 1450,744.5 1450,670.5 1387,636.1 		"/>
		<polygon class="st7" points="1512.9,708.8 1512.9,636.8 1450,670.5 1450,744.5 		"/>
	</g>
	<g class="st15">
		<polygon class="st5" points="1307,452.8 1465.4,539.4 1623.8,452.8 1465.4,363 		"/>
		<polygon class="st6" points="1307,632.4 1465.4,723.9 1465.4,537.7 1307,451.2 		"/>
		<polygon class="st7" points="1623.8,634.1 1623.8,452.8 1465.4,537.7 1465.4,723.9 		"/>
	</g>
	<g class="st15">
		<polygon class="st5" points="1324,358 1432.4,417.2 1540.7,358 1432.4,296.6 		"/>
		<polygon class="st6" points="1324,480.9 1432.4,543.5 1432.4,416.1 1324,356.9 		"/>
		<polygon class="st7" points="1540.7,482 1540.7,358 1432.4,416.1 1432.4,543.5 		"/>
	</g>
	<g class="st16">
		<polygon class="st5" points="1378.2,261.4 1464,308.2 1549.9,261.4 1464,212.7 		"/>
		<polygon class="st6" points="1378.2,358.7 1464,408.2 1464,307.4 1378.2,260.5 		"/>
		<polygon class="st7" points="1549.9,359.6 1549.9,261.4 1464,307.4 1464,408.2 		"/>
	</g>
	<g class="st17">
		<polygon class="st5" points="1215.6,234.6 1324,293.8 1432.4,234.6 1324,173.1 		"/>
		<polygon class="st6" points="1215.6,357.4 1324,420 1324,292.7 1215.6,233.4 		"/>
		<polygon class="st7" points="1432.4,358.6 1432.4,234.6 1324,292.7 1324,420 		"/>
	</g>
</g>
</svg>
